<svg xmlns="http://www.w3.org/2000/svg" viewBox="0 0 512 512"><circle cx="256" cy="256" r="256" fill="#fff"/><circle cx="256" cy="256" r="228" fill="#1C1B22"/><path d="M428.5 340c-3.9 0-7.1-1-9.6-3a35 35 0 0 1-7.5-9.2 70.3 70.3 0 0 1-4.1-9.5c-1.4-4-2.7-8.8-3.9-14.5-1-5.8-2-12.8-2.6-21l7.8 2.8a85.7 85.7 0 0 1-17.5 21 60.7 60.7 0 0 1-19.4 11.1 66.2 66.2 0 0 1-20.3 3.2c-9.2 0-17.1-1.7-23.8-5.3-6.7-3.7-12-9-15.6-16.1a54.8 54.8 0 0 1-5.5-25.5c0-9.3 1.6-18.3 4.7-27a100 100 0 0 1 56-57.6 69 69 0 0 1 25.6-5c5.2 0 9.4.8 12.6 2.3 3.1 1.4 5.4 3.4 6.8 6 1.5 2.6 2.3 5.5 2.3 8.8 0 4-.7 7.8-2.1 11a20 20 0 0 1-6 8c-2.3 2-5.2 3-8.5 3-1.7 0-3-.3-3.8-1-.6-1-1-2-1.3-3a31 31 0 0 0-.6-3.7 4.4 4.4 0 0 0-1.5-3c-.8-.8-2.2-1.2-4.4-1.2a37 37 0 0 0-15.6 3.6c-5 2.3-9.8 5.5-14.4 9.7a74.8 74.8 0 0 0-20.2 30.4 51 51 0 0 0-3 16.8c0 8 1.8 14.2 5.3 18.2 3.6 4 8.5 6.1 14.7 6.1 6 0 11.9-1.2 17.5-3.6 5.5-2.4 10.7-6 15.5-10.6 5-4.9 9.4-10.8 13.4-17.7 2-3.3 4.3-5.5 6.8-6.7 2.7-1.2 5.9-1.9 9.7-1.9 3 0 5 .7 6.3 2 1.4 1 2 3 2 5.6a145.2 145.2 0 0 0 4 38.8c1.5 4.8 3.2 9.5 5.2 13.9a96 96 0 0 1 2.8 6.5c.7 1.7 1.1 3.2 1.4 4.3.2 1.2.4 2.4.4 3.8 0 3-1 5.2-2.7 6.7a9.7 9.7 0 0 1-6.9 2.5Zm-55.7-69.8a14 14 0 0 1-9.3-3.4 11.5 11.5 0 0 1-3.6-8.8c0-2.5.8-4.6 2.5-6.3 1.8-1.7 5-3.3 9.9-4.5a200.2 200.2 0 0 1 53-7.3c5 0 8.7.5 11.2 1.4 2.6.7 4.3 2 5.2 3.6a14.6 14.6 0 0 1-1.9 15c-2.2 2.7-5.7 4-10.7 4a195.2 195.2 0 0 0-44.5 4.8c-4.5 1-8.5 1.5-11.8 1.5ZM245 321.3c-2.6 0-5-.4-7.1-1.3-2.2-.9-4.3-2.5-6.5-5a173.9 173.9 0 0 1-17.5-32.7c-2.8-7-5.1-13.9-7-20.5l-5.1-18.4a133 133 0 0 0-4.8-16c-1.8-5-4-9.3-6.4-13.1-2.5-3.7-4.5-7-6.1-9.7-1.7-3-2.5-6-2.5-9.1 0-3 1-5.8 2.8-8 2-2.3 4.9-3.5 8.8-3.5 3 0 5.7.9 8.4 2.5a27 27 0 0 1 8.1 8.4 82.7 82.7 0 0 1 8.6 16.3 515.4 515.4 0 0 1 12.2 39c1.9 6.6 3.9 12.9 6 18.8a71 71 0 0 0 8.2 15.8L238 292a330.2 330.2 0 0 1 40.1-93.7c2.7-4 5-7 7-9.1 2-2 4-3.4 5.6-4 1.6-.8 3.3-1.2 5.1-1.2 3.4 0 6 1.3 8 3.7a13 13 0 0 1 2.8 8.3 31.9 31.9 0 0 1-3.4 13.5c-1.1 2.2-2.6 4.8-4.5 8-4.6 7.7-8.8 15-12.6 22a288.4 288.4 0 0 0-19.6 42.7 392 392 0 0 0-8.2 25 26 26 0 0 1-5.5 11c-2 2.1-4.6 3.1-7.8 3.1Zm-136.6-.5a42.2 42.2 0 0 1-24.2-5.7c-5.3-4-8-8.7-8-14.1 0-2.6.6-4.6 1.7-6.1 1.3-1.5 3.3-2.3 6-2.3 1.7 0 3.2.2 4.5.6l4.4 1.5a40.8 40.8 0 0 0 13 2c5.8 0 10.8-.3 15.1-.8a59.4 59.4 0 0 0 20.3-5.7c-.8-2.8-3-5.3-6.6-7.5a82.5 82.5 0 0 0-12.6-6.2l-15.2-6.5c-5.2-2.4-10.1-5.1-14.8-8.2a44.2 44.2 0 0 1-11.2-11 30.6 30.6 0 0 1 1.1-32.5A56.2 56.2 0 0 1 96 204a99 99 0 0 1 18.8-10.6c6.7-3 13.3-5.4 19.6-6.9 6.5-1.6 12-2.5 16.7-2.5 3.5 0 6.2.7 8.2 2a9.7 9.7 0 0 1 4.6 4.7c1 2 1.5 4.2 1.5 6.7 0 2.6-.8 4.9-2.3 6.8-1.5 1.9-4 3.2-7.4 3.8a182.8 182.8 0 0 0-28.5 7.8c-8 3-14.2 6.3-18.5 9.7-4.3 3.4-6.4 6.8-6.4 10.3 0 2.6 1.5 5.1 4.5 7.4 3.2 2.1 7.3 4.3 12.2 6.4 5 2 10.1 4.3 15.6 6.7 5.6 2.4 10.8 5.2 15.8 8.4 5 3 9 6.6 12.1 10.8 3.2 4 4.8 9 4.8 14.6 0 5.4-1.4 10-4.2 13.7-2.8 3.8-6.8 7-12.2 9.5a70.2 70.2 0 0 1-18.6 5.7c-7 1.2-15 1.8-24 1.8Z" fill="#fff"/></svg>
